<?xml version="1.0" encoding="UTF-8"?>
<svg width="748px" height="208px" viewBox="0 0 748 208" version="1.1" xmlns="http://www.w3.org/2000/svg" xmlns:xlink="http://www.w3.org/1999/xlink">
    <title>Hyperstar-full</title>
    <g id="Hyperstar-full" stroke="none" stroke-width="1" fill="none" fill-rule="evenodd">
        <g id="Group" transform="translate(23.116279, 24.400000)">
            <g id="Group-2" transform="translate(0.483721, 6.800000)">
                <polygon id="star-copy-2" fill="#FFFFFF" points="80.4 117.4 55.5550337 152.582408 56.7710329 109.951663 15.3550337 124.24725 42.167528 90.4516628 0 78.4 42.167528 66.3483372 15.3550337 32.5527503 56.7710329 46.8483372 55.5550337 4.21759173 80.4 39.4 105.244966 4.21759173 104.028967 46.8483372 145.444966 32.5527503 118.632472 66.3483372 160.8 78.4 118.632472 90.4516628 145.444966 124.24725 104.028967 109.951663 105.244966 152.582408"></polygon>
                <path d="M80.4,117 L33.1420657,141.103326 L42.167528,90.0516628 L3.93505609,53.8966744 L56.7710329,46.4483372 L80.4,0 L104.028967,46.4483372 L156.864944,53.8966744 L118.632472,90.0516628 L127.657934,141.103326 L80.4,117 Z M80.4,117.4 L55.5550337,152.582408 L56.7710329,109.951663 L15.3550337,124.24725 L42.167528,90.4516628 L0,78.4 L42.167528,66.3483372 L15.3550337,32.5527503 L56.7710329,46.8483372 L55.5550337,4.21759173 L80.4,39.4 L105.244966,4.21759173 L104.028967,46.8483372 L145.444966,32.5527503 L118.632472,66.3483372 L160.8,78.4 L118.632472,90.4516628 L145.444966,124.24725 L104.028967,109.951663 L105.244966,152.582408 L80.4,117.4 Z" id="Combined-Shape" fill="#60D1FF"></path>
            </g>
        </g>
        <g id="HYPERSTAR" transform="translate(212.410000, 65.028000)" fill="#60D1FF" fill-rule="nonzero">
            <polygon id="Path" points="31.066 40.964 12.348 40.964 12.348 69.972 0 69.972 0 1.372 12.348 1.372 12.348 29.596 31.066 29.596 31.066 1.372 43.414 1.372 43.414 69.972 31.066 69.972"></polygon>
            <polygon id="Path" points="75.656 44.492 57.232 1.372 71.932 1.372 81.438 27.342 82.418 34.79 82.908 34.79 83.986 27.146 93.296 1.372 106.526 1.372 88.004 44.394 88.004 69.972 75.656 69.972"></polygon>
            <path d="M120.344,2.058 C122.696,1.53533333 125.276667,1.127 128.086,0.833 C130.895333,0.539 133.704667,0.392 136.514,0.392 C139.519333,0.392 142.475667,0.669666667 145.383,1.225 C148.290333,1.78033333 150.887333,2.87466667 153.174,4.508 C155.460667,6.14133333 157.322667,8.44433333 158.76,11.417 C160.197333,14.3896667 160.916,18.2606667 160.916,23.03 C160.916,27.342 160.311667,31.0006667 159.103,34.006 C157.894333,37.0113333 156.277333,39.4613333 154.252,41.356 C152.226667,43.2506667 149.891,44.6226667 147.245,45.472 C144.599,46.3213333 141.871333,46.746 139.062,46.746 C138.800667,46.746 138.376,46.746 137.788,46.746 C137.2,46.746 136.579333,46.7296667 135.926,46.697 C135.272667,46.6643333 134.635667,46.6153333 134.015,46.55 C133.394333,46.4846667 132.953333,46.4193333 132.692,46.354 L132.692,69.972 L120.344,69.972 L120.344,2.058 Z M132.692,35.28 C133.084,35.4106667 133.819,35.525 134.897,35.623 C135.975,35.721 136.71,35.77 137.102,35.77 C138.539333,35.77 139.911333,35.574 141.218,35.182 C142.524667,34.79 143.684333,34.1203333 144.697,33.173 C145.709667,32.2256667 146.51,30.919 147.098,29.253 C147.686,27.587 147.98,25.48 147.98,22.932 C147.98,20.776 147.702333,18.9466667 147.147,17.444 C146.591667,15.9413333 145.840333,14.749 144.893,13.867 C143.945667,12.985 142.851333,12.348 141.61,11.956 C140.368667,11.564 139.062,11.368 137.69,11.368 C135.664667,11.368 133.998667,11.5313333 132.692,11.858 L132.692,35.28 Z" id="Shape"></path>
            <polygon id="Path" points="176.89 1.372 211.19 1.372 211.19 12.74 189.238 12.74 189.238 29.596 209.132 29.596 209.132 40.964 189.238 40.964 189.238 58.604 211.582 58.604 211.582 69.972 176.89 69.972"></polygon>
            <path d="M228.83,2.058 C231.508667,1.47 234.383333,1.04533333 237.454,0.784 C240.524667,0.522666667 243.170667,0.392 245.392,0.392 C248.201333,0.392 250.945333,0.669666667 253.624,1.225 C256.302667,1.78033333 258.671,2.793 260.729,4.263 C262.787,5.733 264.453,7.72566667 265.727,10.241 C267.001,12.7563333 267.638,15.9413333 267.638,19.796 C267.638,25.3493333 266.609,29.8736667 264.551,33.369 C262.493,36.8643333 259.667333,39.2653333 256.074,40.572 L259.994,43.708 L272.636,69.972 L258.426,69.972 L246.47,42.924 L241.178,41.65 L241.178,69.972 L228.83,69.972 L228.83,2.058 Z M241.178,33.222 L245.392,33.222 C248.462667,33.222 250.782,32.291 252.35,30.429 C253.918,28.567 254.702,25.676 254.702,21.756 C254.702,18.816 254.048667,16.415 252.742,14.553 C251.435333,12.691 249.377333,11.76 246.568,11.76 C245.522667,11.76 244.51,11.7926667 243.53,11.858 C242.55,11.9233333 241.766,12.054 241.178,12.25 L241.178,33.222 Z" id="Shape"></path>
            <path d="M311.934,52.332 C311.934,50.2413333 311.313333,48.461 310.072,46.991 C308.830667,45.521 307.279,44.1326667 305.417,42.826 C303.555,41.5193333 301.529667,40.18 299.341,38.808 C297.152333,37.436 295.127,35.8353333 293.265,34.006 C291.403,32.1766667 289.851333,30.0206667 288.61,27.538 C287.368667,25.0553333 286.748,22.0173333 286.748,18.424 C286.748,15.092 287.254333,12.2663333 288.267,9.947 C289.279667,7.62766667 290.668,5.733 292.432,4.263 C294.196,2.793 296.286667,1.715 298.704,1.029 C301.121333,0.343 303.702,0 306.446,0 C309.778,0 312.881333,0.326666667 315.756,0.98 C318.630667,1.63333333 321.015333,2.51533333 322.91,3.626 L319.088,14.504 C317.977333,13.72 316.327667,13.0013333 314.139,12.348 C311.950333,11.6946667 309.582,11.368 307.034,11.368 C304.486,11.368 302.526,11.8906667 301.154,12.936 C299.782,13.9813333 299.096,15.5166667 299.096,17.542 C299.096,19.3713333 299.716667,20.9883333 300.958,22.393 C302.199333,23.7976667 303.751,25.1533333 305.613,26.46 C307.475,27.7666667 309.500333,29.1223333 311.689,30.527 C313.877667,31.9316667 315.903,33.565 317.765,35.427 C319.627,37.289 321.178667,39.4776667 322.42,41.993 C323.661333,44.5083333 324.282,47.4973333 324.282,50.96 C324.282,54.4226667 323.775667,57.428 322.763,59.976 C321.750333,62.524 320.313,64.631 318.451,66.297 C316.589,67.963 314.351333,69.2206667 311.738,70.07 C309.124667,70.9193333 306.217333,71.344 303.016,71.344 C298.965333,71.344 295.421,70.952 292.383,70.168 C289.345,69.384 287.009333,68.502 285.376,67.522 L289.394,56.448 C290.700667,57.232 292.497333,58.016 294.784,58.8 C297.070667,59.584 299.520667,59.976 302.134,59.976 C308.667333,59.976 311.934,57.428 311.934,52.332 Z" id="Path"></path>
            <polygon id="Path" points="381.906 12.74 365.736 12.74 365.736 69.972 353.388 69.972 353.388 12.74 337.12 12.74 337.12 1.372 381.906 1.372"></polygon>
            <path d="M418.166,54.488 L401.996,54.488 L397.978,69.972 L385.728,69.972 L405.622,0.882 L415.324,0.882 L435.316,69.972 L422.38,69.972 L418.166,54.488 Z M404.642,44.296 L416.01,44.296 L412.09,28.322 L410.522,17.542 L410.13,17.542 L408.464,28.42 L404.642,44.296 Z" id="Shape"></path>
            <path d="M449.33,2.058 C452.008667,1.47 454.883333,1.04533333 457.954,0.784 C461.024667,0.522666667 463.670667,0.392 465.892,0.392 C468.701333,0.392 471.445333,0.669666667 474.124,1.225 C476.802667,1.78033333 479.171,2.793 481.229,4.263 C483.287,5.733 484.953,7.72566667 486.227,10.241 C487.501,12.7563333 488.138,15.9413333 488.138,19.796 C488.138,25.3493333 487.109,29.8736667 485.051,33.369 C482.993,36.8643333 480.167333,39.2653333 476.574,40.572 L480.494,43.708 L493.136,69.972 L478.926,69.972 L466.97,42.924 L461.678,41.65 L461.678,69.972 L449.33,69.972 L449.33,2.058 Z M461.678,33.222 L465.892,33.222 C468.962667,33.222 471.282,32.291 472.85,30.429 C474.418,28.567 475.202,25.676 475.202,21.756 C475.202,18.816 474.548667,16.415 473.242,14.553 C471.935333,12.691 469.877333,11.76 467.068,11.76 C466.022667,11.76 465.01,11.7926667 464.03,11.858 C463.05,11.9233333 462.266,12.054 461.678,12.25 L461.678,33.222 Z" id="Shape"></path>
        </g>
    </g>
</svg>