<?xml version="1.0" encoding="UTF-8"?>
<svg width="300px" height="300px" viewBox="0 0 300 300" version="1.1" xmlns="http://www.w3.org/2000/svg" xmlns:xlink="http://www.w3.org/1999/xlink">
    <title>Hyperstar Symbol</title>
    <g id="Hyperstar-Symbol" stroke="none" stroke-width="1" fill="none" fill-rule="evenodd">
        <g id="Group" transform="translate(33.340787, 35.192308)">
            <g id="Group-2" transform="translate(0.697674, 9.807692)">
                <polygon id="star-copy-2" fill="#FFFFFF" points="115.961538 169.326923 80.1274524 220.070781 81.8812974 158.584129 22.1466832 179.202764 60.8185501 130.459129 0 113.076923 60.8185501 95.6947171 22.1466832 46.9510822 81.8812974 67.5697171 80.1274524 6.08306499 115.961538 56.8269231 151.795625 6.08306499 150.04178 67.5697171 209.776394 46.9510822 171.104527 95.6947171 231.923077 113.076923 171.104527 130.459129 209.776394 179.202764 150.04178 158.584129 151.795625 220.070781"></polygon>
                <path d="M115.961538,168.75 L47.8010563,203.514412 L60.8185501,129.882206 L5.67556167,77.7355881 L81.8812974,66.9927941 L115.961538,0 L150.04178,66.9927941 L226.247515,77.7355881 L171.104527,129.882206 L184.122021,203.514412 L115.961538,168.75 Z M115.961538,169.326923 L80.1274524,220.070781 L81.8812974,158.584129 L22.1466832,179.202764 L60.8185501,130.459129 L0,113.076923 L60.8185501,95.6947171 L22.1466832,46.9510822 L81.8812974,67.5697171 L80.1274524,6.08306499 L115.961538,56.8269231 L151.795625,6.08306499 L150.04178,67.5697171 L209.776394,46.9510822 L171.104527,95.6947171 L231.923077,113.076923 L171.104527,130.459129 L209.776394,179.202764 L150.04178,158.584129 L151.795625,220.070781 L115.961538,169.326923 Z" id="Combined-Shape" fill="#60D1FF"></path>
            </g>
        </g>
    </g>
</svg>